# xmcd
# 
# Track frame offsets:
#     150
#     13047
#     34979
#     53654
#     68122
#     85338
#     99966
#     113351
#     135478
#     151175
# 
# Disc length: 2231
# 
# Revision: 0
# Processed by: cddbd v1.5.2PL0 Copyright (c) Steve Scherf et al.
# Submitted via: fre:ac v1.0.31
# 
DISCID=6f08b50a
DTITLE=Angela Lewis Brown - Set Me Free
DYEAR=2015
DGENRE=Blues
TTITLE0=Blues Blues Lovin'
TTITLE1=Set Me Free
TTITLE2=Summer Nights
TTITLE3=I'm Feeling Good About Me
TTITLE4=Hopeless
TTITLE5=Better Man
TTITLE6=I
TTITLE7=Ice Cold Tears
TTITLE8=That's You
TTITLE9=I'll Be There
EXTD=
EXTT0=
EXTT1=
EXTT2=
EXTT3=
EXTT4=
EXTT5=
EXTT6=
EXTT7=
EXTT8=
EXTT9=
PLAYORDER=
